<svg width="120" height="40" viewBox="0 0 120 40" fill="none" xmlns="http://www.w3.org/2000/svg">
<path d="M110.471 0.00013H9.87062C9.50392 0.00013 9.14162 0.00013 8.77589 0.00213C8.46974 0.00413 8.16603 0.00994 7.85694 0.01483C7.18545 0.0227318 6.51554 0.0818063 5.85304 0.19154C5.19146 0.303663 4.55061 0.515046 3.95216 0.81854C3.35444 1.1246 2.80828 1.5223 2.33351 1.9972C1.85624 2.47077 1.4584 3.01815 1.15529 3.61829C0.851338 4.21724 0.640578 4.85907 0.530288 5.52161C0.418948 6.18332 0.359036 6.85265 0.351088 7.52361C0.341808 7.83021 0.340827 8.13783 0.335938 8.44447V31.5587C0.340827 31.8692 0.341808 32.17 0.351088 32.4806C0.359038 33.1516 0.418951 33.8209 0.530288 34.4825C0.640273 35.1455 0.851046 35.7877 1.15529 36.3868C1.45826 36.985 1.85616 37.5302 2.33351 38.0011C2.80648 38.4781 3.35299 38.8761 3.95216 39.1798C4.55061 39.4841 5.19139 39.6968 5.85304 39.8106C6.51566 39.9195 7.18549 39.9786 7.85694 39.9874C8.16603 39.9942 8.46974 39.9981 8.77589 39.9981C9.14161 40.0001 9.50394 40.0001 9.87062 40.0001H110.471C110.83 40.0001 111.195 40.0001 111.555 39.9981C111.859 39.9981 112.172 39.9942 112.477 39.9874C113.147 39.9791 113.815 39.92 114.477 39.8106C115.14 39.696 115.783 39.4834 116.385 39.1798C116.983 38.8759 117.529 38.478 118.002 38.0011C118.478 37.5284 118.877 36.9836 119.184 36.3868C119.486 35.7872 119.694 35.1451 119.803 34.4825C119.914 33.8208 119.976 33.1516 119.988 32.4806C119.992 32.17 119.992 31.8692 119.992 31.5587C120 31.1954 120 30.8341 120 30.4649V9.53626C120 9.17005 120 8.80677 119.992 8.44447C119.992 8.13783 119.992 7.83021 119.988 7.52357C119.976 6.85255 119.914 6.18337 119.803 5.52157C119.694 4.85941 119.485 4.21763 119.184 3.61825C118.566 2.41533 117.588 1.43616 116.385 0.81845C115.783 0.515697 115.14 0.30437 114.477 0.19145C113.815 0.0812328 113.147 0.0221378 112.477 0.01469C112.172 0.00981 111.859 0.00395 111.555 0.002C111.195 0 110.83 0.00013 110.471 0.00013Z" fill="black"/>
<path d="M8.7808 39.125C8.47612 39.125 8.1788 39.1211 7.87651 39.1143C7.2503 39.1061 6.62554 39.0516 6.00737 38.9512C5.43096 38.8519 4.87258 38.6673 4.35063 38.4033C3.83348 38.1415 3.36179 37.7983 2.95363 37.3867C2.53957 36.98 2.19485 36.5082 1.93312 35.9902C1.66851 35.4688 1.48539 34.9099 1.39012 34.333C1.28725 33.7131 1.23159 33.0863 1.22362 32.458C1.21728 32.2471 1.20898 31.5449 1.20898 31.5449V8.44434C1.20898 8.44434 1.21782 7.75293 1.22367 7.5498C1.2313 6.92248 1.28664 6.29665 1.3892 5.67773C1.48464 5.09925 1.66791 4.53875 1.93266 4.01563C2.19343 3.49794 2.53624 3.02586 2.9478 2.61768C3.35891 2.20562 3.83211 1.8606 4.35014 1.59521C4.87089 1.33209 5.42822 1.14873 6.00346 1.05127C6.62366 0.949836 7.25059 0.894996 7.87897 0.88721L8.78129 0.875H111.55L112.463 0.8877C113.086 0.895099 113.707 0.94945 114.321 1.05029C114.902 1.14898 115.466 1.33362 115.992 1.59814C117.03 2.13299 117.875 2.97916 118.407 4.01807C118.668 4.53758 118.848 5.09351 118.942 5.66699C119.046 6.29099 119.104 6.92174 119.116 7.5542C119.119 7.8374 119.119 8.1416 119.119 8.44434C119.127 8.81934 119.127 9.17627 119.127 9.53613V30.4648C119.127 30.8281 119.127 31.1826 119.119 31.54C119.119 31.8652 119.119 32.1631 119.115 32.4697C119.104 33.0909 119.046 33.7104 118.944 34.3232C118.851 34.9043 118.669 35.4675 118.404 35.9932C118.141 36.5056 117.798 36.9733 117.389 37.3789C116.98 37.7927 116.508 38.1379 115.989 38.4014C115.464 38.6674 114.902 38.8527 114.321 38.9512C113.703 39.0522 113.078 39.1067 112.452 39.1143C112.159 39.1211 111.853 39.125 111.555 39.125L110.471 39.127L8.7808 39.125Z" fill="white"/>
<path d="M25.333 19.8892C25.3442 19.0212 25.5747 18.1702 26.0032 17.4153C26.4316 16.6604 27.0441 16.0261 27.7836 15.5715C27.3138 14.9006 26.6941 14.3485 25.9736 13.959C25.2531 13.5695 24.4518 13.3533 23.6332 13.3277C21.8869 13.1444 20.194 14.3727 19.3042 14.3727C18.3971 14.3727 17.027 13.3459 15.5517 13.3763C14.5974 13.4071 13.6674 13.6846 12.8522 14.1817C12.0371 14.6789 11.3646 15.3787 10.9003 16.213C8.88921 19.695 10.3893 24.8124 12.3158 27.627C13.2797 29.0052 14.4062 30.5447 15.8802 30.4901C17.3226 30.4303 17.8613 29.5704 19.6024 29.5704C21.3273 29.5704 21.8328 30.4901 23.3367 30.4554C24.8844 30.4303 25.8596 29.0711 26.7897 27.6798C27.4822 26.6978 28.0151 25.6124 28.3687 24.4639C27.4695 24.0836 26.7021 23.447 26.1623 22.6335C25.6224 21.82 25.334 20.8655 25.333 19.8892Z" fill="black"/>
<path d="M22.4923 11.4766C23.3362 10.4635 23.752 9.16135 23.6513 7.84668C22.362 7.98209 21.171 8.59829 20.3157 9.5725C19.8975 10.0484 19.5773 10.6021 19.3732 11.2019C19.1691 11.8017 19.0852 12.4358 19.1264 13.068C19.7713 13.0746 20.4092 12.9349 20.9923 12.6592C21.5753 12.3835 22.0882 11.9792 22.4923 11.4766Z" fill="black"/>
<path d="M42.6377 27.1392H37.9043L36.7676 30.4956H34.7627L39.2461 18.0776H41.3291L45.8125 30.4956H43.7734L42.6377 27.1392ZM38.3945 25.5904H42.1465L40.2969 20.1431H40.2451L38.3945 25.5904Z" fill="black"/>
<path d="M55.4951 25.9695C55.4951 28.7829 53.9893 30.5905 51.7168 30.5905C51.1412 30.6207 50.5687 30.4881 50.0649 30.2079C49.5611 29.9278 49.1464 29.5114 48.8682 29.0065H48.8252V33.4909H46.9668V21.4421H48.7656V22.948H48.7998C49.0908 22.4455 49.5125 22.0313 50.0201 21.7495C50.5277 21.4676 51.1023 21.3287 51.6826 21.3474C53.9805 21.3474 55.4951 23.1638 55.4951 25.9695ZM53.585 25.9695C53.585 24.1365 52.6377 22.9314 51.1924 22.9314C49.7725 22.9314 48.8174 24.1618 48.8174 25.9695C48.8174 27.7937 49.7725 29.0154 51.1924 29.0154C52.6377 29.0154 53.585 27.8191 53.585 25.9695Z" fill="black"/>
<path d="M65.4605 25.9695C65.4605 28.7829 63.9541 30.5905 61.6817 30.5905C61.106 30.6207 60.5335 30.4881 60.0297 30.2079C59.5259 29.9278 59.1112 29.5114 58.833 29.0065H58.79V33.4909H56.9316V21.4421H58.7305V22.948H58.7646C59.0556 22.4455 59.4773 22.0313 59.985 21.7495C60.4926 21.4676 61.0671 21.3287 61.6475 21.3474C63.9453 21.3474 65.4605 23.1638 65.4605 25.9695ZM63.5498 25.9695C63.5498 24.1365 62.6026 22.9314 61.1573 22.9314C59.7373 22.9314 58.7823 24.1618 58.7823 25.9695C58.7823 27.7937 59.7373 29.0154 61.1573 29.0154C62.6026 29.0154 63.5498 27.8191 63.5498 25.9695Z" fill="black"/>
<path d="M72.045 27.0357C72.1827 28.2671 73.379 29.0757 75.0137 29.0757C76.5801 29.0757 77.7071 28.2671 77.7071 27.1567C77.7071 26.1929 77.0274 25.6157 75.418 25.2202L73.8086 24.8325C71.5284 24.2817 70.4698 23.2153 70.4698 21.4849C70.4698 19.3423 72.337 17.8706 74.9874 17.8706C77.6124 17.8706 79.4112 19.3423 79.4717 21.4849H77.5957C77.4834 20.2456 76.459 19.4976 74.962 19.4976C73.4649 19.4976 72.4405 20.2544 72.4405 21.356C72.4405 22.2339 73.0948 22.7505 74.6954 23.146L76.0635 23.4819C78.6114 24.0844 79.669 25.1079 79.669 26.9243C79.669 29.2475 77.8194 30.7026 74.876 30.7026C72.1221 30.7026 70.2627 29.2817 70.1426 27.0356L72.045 27.0357Z" fill="black"/>
<path d="M83.6816 19.2993V21.4419H85.4033V22.9136H83.6816V27.9048C83.6816 28.6802 84.0264 29.0415 84.7832 29.0415C84.9876 29.0379 85.1916 29.0236 85.3945 28.9985V30.4614C85.0543 30.525 84.7084 30.5538 84.3623 30.5473C82.5293 30.5473 81.8144 29.8589 81.8144 28.103V22.9136H80.498V21.4419H81.8144V19.2993H83.6816Z" fill="black"/>
<path d="M86.4004 25.9692C86.4004 23.1206 88.0781 21.3306 90.6943 21.3306C93.3193 21.3306 94.9893 23.1206 94.9893 25.9692C94.9893 28.8257 93.3281 30.6079 90.6943 30.6079C88.0615 30.6079 86.4004 28.8257 86.4004 25.9692ZM93.0957 25.9692C93.0957 24.0151 92.2002 22.8618 90.6943 22.8618C89.1885 22.8618 88.293 24.0239 88.293 25.9692C88.293 27.9311 89.1885 29.0757 90.6943 29.0757C92.2002 29.0757 93.0957 27.9311 93.0957 25.9692Z" fill="black"/>
<path d="M96.5205 21.442H98.293V22.983H98.336C98.4559 22.5017 98.7379 22.0764 99.1344 21.7785C99.531 21.4806 100.018 21.3284 100.514 21.3473C100.728 21.3465 100.941 21.3698 101.15 21.4166V23.1549C100.88 23.0723 100.598 23.0343 100.315 23.0426C100.045 23.0316 99.7763 23.0792 99.5265 23.1821C99.2766 23.285 99.052 23.4408 98.868 23.6386C98.6841 23.8365 98.5451 24.0719 98.4606 24.3286C98.3762 24.5852 98.3483 24.8571 98.3789 25.1256V30.4957H96.5205L96.5205 21.442Z" fill="black"/>
<path d="M109.72 27.8364C109.47 29.48 107.869 30.6079 105.821 30.6079C103.187 30.6079 101.553 28.8433 101.553 26.0122C101.553 23.1724 103.196 21.3306 105.743 21.3306C108.248 21.3306 109.823 23.0513 109.823 25.7964V26.4331H103.429V26.5454C103.399 26.8786 103.441 27.2143 103.551 27.5301C103.661 27.846 103.837 28.1347 104.068 28.3773C104.298 28.6198 104.577 28.8106 104.887 28.9369C105.197 29.0632 105.53 29.1222 105.864 29.1099C106.303 29.151 106.744 29.0493 107.121 28.8199C107.498 28.5904 107.79 28.2455 107.955 27.8364L109.72 27.8364ZM103.437 25.1343H107.964C107.981 24.8347 107.935 24.5349 107.83 24.2537C107.726 23.9725 107.564 23.7159 107.356 23.5001C107.147 23.2844 106.896 23.114 106.619 22.9998C106.341 22.8856 106.043 22.83 105.743 22.8364C105.441 22.8346 105.141 22.8928 104.86 23.0075C104.58 23.1222 104.326 23.2913 104.112 23.5049C103.897 23.7186 103.727 23.9726 103.612 24.2522C103.496 24.5319 103.437 24.8316 103.437 25.1343Z" fill="black"/>
<path d="M38.1621 8.73089C38.5517 8.70293 38.9427 8.76179 39.3068 8.90323C39.6709 9.04466 39.9991 9.26514 40.2677 9.54876C40.5363 9.83239 40.7386 10.1721 40.86 10.5434C40.9814 10.9146 41.0188 11.3082 40.9697 11.6957C40.9697 13.602 39.9395 14.6977 38.1621 14.6977H36.0068V8.73089H38.1621ZM36.9336 13.8539H38.0586C38.337 13.8705 38.6156 13.8249 38.8741 13.7203C39.1327 13.6157 39.3646 13.4547 39.5531 13.2491C39.7416 13.0436 39.8819 12.7986 39.9638 12.532C40.0456 12.2653 40.067 11.9838 40.0264 11.7079C40.0641 11.4331 40.0405 11.1533 39.9574 10.8886C39.8743 10.624 39.7336 10.381 39.5456 10.177C39.3575 9.9731 39.1267 9.81329 38.8696 9.70905C38.6125 9.60481 38.3356 9.55873 38.0586 9.5741H36.9336V13.8539Z" fill="black"/>
<path d="M42.0169 12.4443C41.9886 12.1484 42.0224 11.8498 42.1163 11.5677C42.2101 11.2857 42.3619 11.0263 42.5618 10.8063C42.7617 10.5864 43.0055 10.4106 43.2773 10.2903C43.5492 10.17 43.8431 10.1079 44.1404 10.1079C44.4377 10.1079 44.7317 10.17 45.0035 10.2903C45.2754 10.4106 45.5191 10.5864 45.719 10.8063C45.919 11.0263 46.0707 11.2857 46.1646 11.5677C46.2584 11.8498 46.2923 12.1484 46.264 12.4443C46.2928 12.7405 46.2593 13.0395 46.1658 13.322C46.0722 13.6045 45.9205 13.8644 45.7205 14.0848C45.5205 14.3052 45.2766 14.4813 45.0045 14.6019C44.7324 14.7224 44.438 14.7847 44.1404 14.7847C43.8428 14.7847 43.5485 14.7224 43.2763 14.6019C43.0042 14.4813 42.7603 14.3052 42.5603 14.0848C42.3603 13.8644 42.2087 13.6045 42.1151 13.322C42.0215 13.0395 41.988 12.7405 42.0169 12.4443ZM45.3499 12.4443C45.3499 11.4682 44.9114 10.8974 44.1419 10.8974C43.3694 10.8974 42.9349 11.4682 42.9349 12.4443C42.9349 13.4282 43.3695 13.9946 44.1419 13.9946C44.9114 13.9946 45.3499 13.4243 45.3499 12.4443Z" fill="black"/>
<path d="M51.9092 14.6978H50.9873L50.0566 11.3813H49.9863L49.0596 14.6978H48.1465L46.9053 10.1948H47.8066L48.6133 13.6308H48.6797L49.6055 10.1948H50.458L51.3838 13.6308H51.4541L52.2568 10.1948H53.1455L51.9092 14.6978Z" fill="black"/>
<path d="M54.1895 10.1949H55.0449V10.9102H55.1113C55.224 10.6533 55.414 10.4379 55.6549 10.2941C55.8957 10.1503 56.1755 10.0852 56.4551 10.1079C56.6742 10.0915 56.8942 10.1245 57.0988 10.2046C57.3034 10.2847 57.4873 10.4098 57.637 10.5707C57.7867 10.7315 57.8983 10.924 57.9635 11.1338C58.0287 11.3436 58.0458 11.5654 58.0137 11.7827V14.6977H57.125V12.0059C57.125 11.2823 56.8106 10.9224 56.1533 10.9224C56.0046 10.9155 55.8561 10.9408 55.718 10.9966C55.58 11.0525 55.4556 11.1375 55.3535 11.2459C55.2514 11.3543 55.1739 11.4834 55.1263 11.6246C55.0788 11.7657 55.0624 11.9154 55.0781 12.0635V14.6978H54.1895L54.1895 10.1949Z" fill="black"/>
<path d="M59.4297 8.43701H60.3184V14.6978H59.4297V8.43701Z" fill="black"/>
<path d="M61.554 12.4444C61.5257 12.1484 61.5596 11.8499 61.6534 11.5678C61.7473 11.2857 61.8991 11.0263 62.099 10.8064C62.299 10.5864 62.5427 10.4106 62.8146 10.2903C63.0865 10.17 63.3805 10.1079 63.6777 10.1079C63.975 10.1079 64.269 10.17 64.5409 10.2903C64.8128 10.4106 65.0565 10.5864 65.2565 10.8064C65.4564 11.0263 65.6082 11.2857 65.7021 11.5678C65.7959 11.8499 65.8298 12.1484 65.8015 12.4444C65.8303 12.7406 65.7969 13.0396 65.7032 13.3221C65.6096 13.6046 65.4579 13.8645 65.2579 14.0849C65.0579 14.3053 64.814 14.4814 64.5419 14.6019C64.2697 14.7225 63.9754 14.7847 63.6777 14.7847C63.3801 14.7847 63.0858 14.7225 62.8136 14.6019C62.5415 14.4814 62.2976 14.3053 62.0976 14.0849C61.8976 13.8645 61.7459 13.6046 61.6523 13.3221C61.5586 13.0396 61.5252 12.7406 61.554 12.4444ZM64.887 12.4444C64.887 11.4683 64.4485 10.8975 63.679 10.8975C62.9065 10.8975 62.472 11.4683 62.472 12.4444C62.472 13.4283 62.9065 13.9947 63.679 13.9947C64.4485 13.9947 64.887 13.4244 64.887 12.4444Z" fill="black"/>
<path d="M66.7363 13.4243C66.7363 12.6138 67.3398 12.1465 68.4111 12.0801L69.6309 12.0098V11.6211C69.6309 11.1455 69.3164 10.877 68.709 10.877C68.2129 10.877 67.8691 11.0591 67.7705 11.3774H66.9102C67.001 10.604 67.7285 10.1079 68.75 10.1079C69.8789 10.1079 70.5156 10.6699 70.5156 11.6211V14.6978H69.6602V14.0649H69.5898C69.4471 14.2919 69.2467 14.477 69.0091 14.6012C68.7715 14.7254 68.5051 14.7843 68.2373 14.7719C68.0483 14.7916 67.8572 14.7714 67.6765 14.7127C67.4957 14.654 67.3292 14.5581 67.1878 14.4311C67.0464 14.3042 66.9332 14.149 66.8554 13.9756C66.7776 13.8021 66.7371 13.6144 66.7363 13.4243ZM69.6309 13.0395V12.6631L68.5312 12.7334C67.9111 12.7749 67.6299 12.9858 67.6299 13.3828C67.6299 13.7881 67.9814 14.0239 68.4649 14.0239C68.6065 14.0382 68.7496 14.0239 68.8856 13.9819C69.0216 13.9398 69.1478 13.8707 69.2565 13.7789C69.3653 13.6871 69.4545 13.5743 69.5188 13.4473C69.5831 13.3202 69.6212 13.1816 69.6309 13.0395Z" fill="black"/>
<path d="M71.6836 12.4444C71.6836 11.0215 72.415 10.1201 73.5527 10.1201C73.8342 10.1072 74.1134 10.1746 74.358 10.3145C74.6025 10.4544 74.8021 10.661 74.9336 10.9101H75V8.43701H75.8887V14.6978H75.0371V13.9863H74.9668C74.8252 14.2338 74.6186 14.4378 74.3693 14.5763C74.1201 14.7148 73.8377 14.7825 73.5527 14.772C72.4072 14.772 71.6836 13.8706 71.6836 12.4444ZM72.6016 12.4444C72.6016 13.3994 73.0518 13.9741 73.8047 13.9741C74.5537 13.9741 75.0166 13.3911 75.0166 12.4483C75.0166 11.5098 74.5489 10.9185 73.8047 10.9185C73.0566 10.9185 72.6016 11.4971 72.6016 12.4444Z" fill="black"/>
<path d="M79.5657 12.4443C79.5374 12.1484 79.5712 11.8498 79.6651 11.5677C79.7589 11.2857 79.9107 11.0263 80.1106 10.8063C80.3106 10.5864 80.5543 10.4106 80.8261 10.2903C81.098 10.17 81.392 10.1079 81.6892 10.1079C81.9865 10.1079 82.2805 10.17 82.5524 10.2903C82.8242 10.4106 83.0679 10.5864 83.2679 10.8063C83.4678 11.0263 83.6196 11.2857 83.7134 11.5677C83.8072 11.8498 83.8411 12.1484 83.8128 12.4443C83.8416 12.7405 83.8082 13.0395 83.7146 13.322C83.621 13.6045 83.4693 13.8644 83.2693 14.0848C83.0693 14.3052 82.8254 14.4813 82.5533 14.6019C82.2812 14.7224 81.9869 14.7847 81.6892 14.7847C81.3916 14.7847 81.0973 14.7224 80.8252 14.6019C80.553 14.4813 80.3091 14.3052 80.1092 14.0848C79.9092 13.8644 79.7575 13.6045 79.6639 13.322C79.5703 13.0395 79.5369 12.7405 79.5657 12.4443ZM82.8987 12.4443C82.8987 11.4682 82.4602 10.8974 81.6907 10.8974C80.9182 10.8974 80.4837 11.4682 80.4837 12.4443C80.4837 13.4282 80.9183 13.9946 81.6907 13.9946C82.4602 13.9946 82.8987 13.4243 82.8987 12.4443Z" fill="black"/>
<path d="M85.0049 10.1949H85.8604V10.9102H85.9268C86.0394 10.6533 86.2294 10.4379 86.4703 10.2941C86.7112 10.1503 86.9909 10.0852 87.2705 10.1079C87.4896 10.0915 87.7096 10.1245 87.9142 10.2046C88.1188 10.2847 88.3028 10.4098 88.4524 10.5707C88.6021 10.7315 88.7137 10.924 88.7789 11.1338C88.8441 11.3436 88.8613 11.5654 88.8291 11.7827V14.6977H87.9404V12.0059C87.9404 11.2823 87.626 10.9224 86.9688 10.9224C86.82 10.9155 86.6715 10.9408 86.5334 10.9966C86.3954 11.0525 86.271 11.1375 86.1689 11.2459C86.0668 11.3543 85.9893 11.4834 85.9418 11.6246C85.8942 11.7657 85.8778 11.9154 85.8936 12.0635V14.6978H85.0049V10.1949Z" fill="black"/>
<path d="M93.8506 9.07373V10.2153H94.8262V10.9639H93.8506V13.2793C93.8506 13.751 94.0449 13.9575 94.4873 13.9575C94.6006 13.9572 94.7137 13.9503 94.8262 13.937V14.6772C94.6666 14.7058 94.5049 14.721 94.3428 14.7226C93.3545 14.7226 92.9609 14.375 92.9609 13.5068V10.9638H92.2461V10.2153H92.9609V9.07373H93.8506Z" fill="black"/>
<path d="M96.041 8.43701H96.9219V10.9185H96.9922C97.1103 10.6591 97.3055 10.4425 97.5512 10.2982C97.7969 10.1539 98.0812 10.0888 98.3652 10.1118C98.5831 10.1 98.801 10.1364 99.0033 10.2184C99.2056 10.3004 99.3873 10.4261 99.5354 10.5864C99.6835 10.7468 99.7944 10.9378 99.8602 11.146C99.926 11.3541 99.945 11.5742 99.916 11.7905V14.6978H99.0264V12.0098C99.0264 11.2905 98.6914 10.9263 98.0635 10.9263C97.9108 10.9137 97.7571 10.9347 97.6134 10.9878C97.4696 11.0408 97.3391 11.1247 97.2311 11.2334C97.1232 11.3421 97.0402 11.4732 96.9882 11.6173C96.9361 11.7614 96.9162 11.9152 96.9297 12.0679V14.6977H96.0411L96.041 8.43701Z" fill="black"/>
<path d="M105.097 13.482C104.977 13.8935 104.715 14.2495 104.358 14.4877C104.002 14.7258 103.573 14.831 103.146 14.7847C102.849 14.7926 102.555 14.7357 102.282 14.6182C102.01 14.5007 101.766 14.3253 101.568 14.1041C101.37 13.883 101.223 13.6214 101.136 13.3376C101.049 13.0538 101.026 12.7545 101.066 12.4605C101.027 12.1656 101.051 11.8657 101.137 11.581C101.224 11.2964 101.371 11.0336 101.567 10.8105C101.764 10.5874 102.007 10.4093 102.278 10.2881C102.55 10.1669 102.845 10.1054 103.142 10.108C104.395 10.108 105.151 10.964 105.151 12.378V12.6881H101.971V12.7379C101.957 12.9031 101.978 13.0695 102.032 13.2262C102.086 13.383 102.173 13.5267 102.286 13.6481C102.399 13.7696 102.536 13.8661 102.688 13.9315C102.84 13.9969 103.005 14.0297 103.171 14.0279C103.383 14.0534 103.598 14.0151 103.789 13.9179C103.98 13.8207 104.138 13.669 104.242 13.482L105.097 13.482ZM101.971 12.0308H104.246C104.257 11.8797 104.236 11.7279 104.185 11.5852C104.134 11.4425 104.054 11.312 103.95 11.2021C103.845 11.0923 103.719 11.0055 103.579 10.9473C103.439 10.8891 103.289 10.8609 103.137 10.8643C102.984 10.8624 102.831 10.8913 102.689 10.9492C102.546 11.0072 102.417 11.093 102.308 11.2017C102.2 11.3104 102.114 11.4398 102.056 11.5822C101.998 11.7246 101.969 11.8771 101.971 12.0308Z" fill="black"/>
</svg>
