<svg width="116" height="117" viewBox="0 0 116 117" fill="none" xmlns="http://www.w3.org/2000/svg">
<g filter="url(#filter0_d_788_5503)">
<path d="M14.8038 66.059C11.0159 55.6517 13.0679 44.0141 20.1869 35.53L29.3173 24.6489C36.4363 16.1648 47.5408 12.1231 58.4477 14.0463L72.4362 16.5128C83.3432 18.436 92.3957 26.0319 96.1836 36.4392L101.042 49.7869C104.83 60.1942 102.778 71.8318 95.6587 80.3159L86.5283 91.1971C79.4093 99.6812 68.3048 103.723 57.3979 101.8L43.4094 99.3331C32.5024 97.4099 23.4499 89.814 19.662 79.4067L14.8038 66.059Z" fill="#E15352"/>
</g>
<g clip-path="url(#clip0_788_5503)">
<path d="M40.0016 57.46C40.0016 47.425 47.8616 40 58.0016 40C68.1416 40 76.0016 47.425 76.0016 57.46C76.0016 67.495 68.1416 74.92 58.0016 74.92C56.2452 74.9235 54.4963 74.6914 52.8016 74.23C52.4825 74.1441 52.1435 74.1706 51.8416 74.305L48.2516 75.88C48.0351 75.9763 47.7982 76.0178 47.5618 76.0006C47.3255 75.9834 47.0971 75.9082 46.8968 75.7816C46.6965 75.655 46.5305 75.4809 46.4136 75.2748C46.2967 75.0687 46.2325 74.8369 46.2266 74.6L46.1216 71.4C46.1135 71.2066 46.0668 71.0168 45.9844 70.8416C45.902 70.6665 45.7854 70.5095 45.6416 70.38C43.8364 68.7517 42.3995 66.7569 41.4269 64.5288C40.4543 62.3008 39.9684 59.8908 40.0016 57.46ZM52.4816 54.175L47.2016 62.575C47.0928 62.7428 47.047 62.9437 47.0724 63.142C47.0978 63.3404 47.1927 63.5233 47.3403 63.6583C47.4878 63.7932 47.6785 63.8715 47.8783 63.8791C48.0781 63.8868 48.2742 63.8233 48.4316 63.7L54.1166 59.395C54.3029 59.2493 54.5326 59.1701 54.7691 59.1701C55.0056 59.1701 55.2353 59.2493 55.4216 59.395L59.6216 62.545C59.9203 62.767 60.2615 62.925 60.624 63.0092C60.9865 63.0934 61.3625 63.102 61.7284 63.0344C62.0944 62.9669 62.4425 62.8246 62.751 62.6165C63.0595 62.4084 63.3218 62.139 63.5216 61.825L68.8016 53.425C68.9088 53.2571 68.9533 53.0568 68.9274 52.8593C68.9014 52.6618 68.8066 52.4798 68.6596 52.3454C68.5126 52.2109 68.3229 52.1327 68.1239 52.1244C67.9248 52.1161 67.7293 52.1783 67.5716 52.3L61.8866 56.6C61.7032 56.7457 61.4758 56.825 61.2416 56.825C61.0074 56.825 60.78 56.7457 60.5966 56.6L56.3966 53.45C56.0979 53.2244 55.7556 53.0633 55.3913 52.977C55.0271 52.8908 54.6489 52.8812 54.2807 52.9489C53.9126 53.0166 53.5625 53.1601 53.2528 53.3703C52.9431 53.5805 52.6805 53.8529 52.4816 54.17V54.175Z" fill="white"/>
</g>
<defs>
<filter id="filter0_d_788_5503" x="3.93359" y="7.57471" width="109.979" height="108.697" filterUnits="userSpaceOnUse" color-interpolation-filters="sRGB">
<feFlood flood-opacity="0" result="BackgroundImageFix"/>
<feColorMatrix in="SourceAlpha" type="matrix" values="0 0 0 0 0 0 0 0 0 0 0 0 0 0 0 0 0 0 127 0" result="hardAlpha"/>
<feOffset dx="1" dy="4"/>
<feGaussianBlur stdDeviation="5"/>
<feComposite in2="hardAlpha" operator="out"/>
<feColorMatrix type="matrix" values="0 0 0 0 0 0 0 0 0 0 0 0 0 0 0 0 0 0 0.25 0"/>
<feBlend mode="normal" in2="BackgroundImageFix" result="effect1_dropShadow_788_5503"/>
<feBlend mode="normal" in="SourceGraphic" in2="effect1_dropShadow_788_5503" result="shape"/>
</filter>
<clipPath id="clip0_788_5503">
<rect width="36.002" height="36.004" fill="white" transform="translate(40 40)"/>
</clipPath>
</defs>
</svg>
