<svg width="105" height="30" viewBox="0 0 105 30" fill="none" xmlns="http://www.w3.org/2000/svg">
<path d="M14.9761 29.9952C11.314 29.9952 7.82361 28.6766 5.05901 26.2278C2.06172 23.574 0.272215 19.9064 0.0284426 15.9118C-0.21533 11.9118 1.11434 8.06127 3.76813 5.05844C6.42192 2.06115 10.0896 0.27164 14.0841 0.0278683C20.1119 -0.33779 25.7464 2.91989 28.4334 8.3272C29.1481 9.77322 28.5609 11.5239 27.1204 12.2386C25.6744 12.9533 23.9237 12.3661 23.209 10.9256C21.569 7.62359 18.1285 5.62909 14.4442 5.85624C12.001 6.00583 9.76271 7.09726 8.14495 8.92555C6.52165 10.7594 5.71277 13.1085 5.86235 15.5517C6.16707 20.5934 10.5217 24.4439 15.5634 24.1336C18.1729 23.9729 20.5995 22.7042 22.2117 20.6432C23.209 19.3745 25.0428 19.1529 26.3115 20.1502C27.5802 21.1474 27.8019 22.9812 26.8046 24.25C24.1619 27.624 20.1895 29.7071 15.918 29.9675C15.6077 29.9841 15.2919 29.9952 14.9872 29.9952H14.9761Z" fill="#E15352"/>
<path d="M32.8879 16.1115C32.8325 14.5159 31.6524 13.2194 30.2119 13.1751C29.7964 13.164 29.3975 13.2527 29.0429 13.4244C27.5193 14.1613 25.8295 14.3663 24.1841 14.1003H24.1564C23.6356 14.0117 23.1203 13.8898 22.6162 13.7291C21.3142 13.3192 20.1729 12.5158 19.2976 11.4687C18.195 10.1612 16.544 9.33571 14.6991 9.34679C11.4747 9.36895 8.83197 11.995 8.78765 15.2195C8.74333 18.5492 11.4248 21.2584 14.7434 21.2584C16.3058 21.2584 17.7241 20.66 18.7879 19.6739C19.774 18.7597 20.9763 18.0949 22.2948 17.8179C22.6937 17.7348 23.0926 17.6738 23.4971 17.6406L23.7021 17.624C25.486 17.4578 27.2534 17.9398 28.8158 18.9038C29.2091 19.1475 29.6634 19.286 30.151 19.286C31.7078 19.286 32.9599 17.8511 32.8989 16.1115H32.8879Z" fill="#E15352"/>
<path d="M40.0127 11.5459H46.3785V13.2301C46.3785 13.2301 46.3785 13.2412 46.3674 13.2412H40.0847C38.8437 13.2412 38.4836 13.5958 38.4836 14.859V16.5709C38.4836 17.8286 38.8437 18.1998 40.0847 18.1998H44.0571C44.4781 18.1998 44.661 18.0114 44.661 17.474V16.3549H40.9933C40.8271 16.3549 40.7274 16.2607 40.7274 16.0834V15.1914C40.7274 15.0141 40.8216 14.9199 40.9933 14.9199H46.3729V18.0446C46.3729 19.3743 45.8411 19.8619 44.8826 19.8619H40.0238C37.5916 19.8619 36.6553 19.0087 36.6553 16.7261V14.6817C36.6553 12.3991 37.5916 11.5459 40.0238 11.5459H40.0127Z" fill="#E15352"/>
<path d="M56.7112 11.5459C56.7112 11.5459 56.7223 11.5459 56.7223 11.557V13.1969H51.1875C49.9354 13.1969 49.5864 13.5626 49.5864 14.8147V14.931H56.6503V16.3936H49.5864V16.5931C49.5864 17.8397 49.9354 18.2109 51.1875 18.2109H56.7112C56.7112 18.2109 56.7223 18.2109 56.7223 18.2219V19.8619H51.1488C48.7166 19.8619 47.7803 19.0087 47.7803 16.7261V14.6817C47.7803 12.3991 48.7166 11.5459 51.1488 11.5459H56.7057H56.7112Z" fill="#E15352"/>
<path d="M76.6612 11.5459C78.5006 11.5459 79.2485 12.388 79.2485 13.9947V14.6706C79.2485 16.0224 78.7167 16.8202 77.4535 17.0474L79.5089 19.5627L79.7472 19.8619H77.5865L77.459 19.7067L75.5587 17.2358H71.6694V19.8619H69.8301V11.5459H76.6502H76.6612ZM71.6805 15.7842H76.29C77.11 15.7842 77.4092 15.4407 77.4092 14.726V14.2274C77.4092 13.5127 77.11 13.1692 76.29 13.1692H71.8357C71.7249 13.1692 71.6805 13.2191 71.6805 13.3132V15.7842Z" fill="#E15352"/>
<path d="M83.7868 11.5459H90.1526V13.2468H83.8588C82.6178 13.2468 82.2577 13.6013 82.2577 14.8645V16.5765C82.2577 17.8341 82.6178 18.2053 83.8588 18.2053H87.8312C88.2522 18.2053 88.4351 18.0169 88.4351 17.4795V16.3604H84.4959V16.0889V15.1969L84.507 14.9199H84.7619H90.1415V18.0446C90.1415 19.3743 89.6096 19.8619 88.6511 19.8619H83.7923C81.3601 19.8619 80.4238 19.0087 80.4238 16.7261V14.6817C80.4238 12.3991 81.3601 11.5459 83.7923 11.5459H83.7868Z" fill="black"/>
<path d="M98.6456 11.5459C101.089 11.5459 102.014 12.3991 102.014 14.6817V16.7261C102.014 19.0087 101.089 19.8619 98.6456 19.8619H94.9281C92.4959 19.8619 91.5596 19.0087 91.5596 16.7261V14.6817C91.5596 12.3991 92.4959 11.5459 94.9281 11.5459H98.6456ZM93.3989 16.5931C93.3989 17.8397 93.7591 18.2109 95.0001 18.2109H98.5736C99.8146 18.2109 100.175 17.8452 100.175 16.5931V14.8091C100.175 13.5626 99.8146 13.1914 98.5736 13.1914H95.0001C93.7591 13.1914 93.3989 13.557 93.3989 14.8091V16.5931Z" fill="black"/>
<path d="M68.8163 19.5902L64.8328 12.4543C64.4339 11.7396 64.0628 11.5513 63.4478 11.5513H62.7386C62.2345 11.5513 61.8743 11.7396 61.4754 12.4543L57.5308 19.5902L57.3867 19.8617H59.4588L59.5308 19.7066L60.1125 18.6317L60.3563 18.1774L61.2538 16.5375L62.999 13.3186C63.0378 13.2577 63.071 13.2355 63.132 13.2355H63.204C63.265 13.2355 63.2982 13.2577 63.337 13.3186L65.1043 16.5375L66.2622 18.6317L66.8661 19.7121L66.9548 19.8672H68.9548L68.8163 19.5958V19.5902Z" fill="#E15352"/>
<path d="M103.87 12.8311V11.9668H104.258C104.335 11.9668 104.396 11.9723 104.435 11.989C104.474 12.0056 104.507 12.0333 104.535 12.0721C104.562 12.1108 104.573 12.1552 104.573 12.1995C104.573 12.2604 104.551 12.3103 104.512 12.3546C104.474 12.3989 104.413 12.4211 104.324 12.4322C104.357 12.4488 104.379 12.4599 104.396 12.4765C104.429 12.5097 104.463 12.543 104.49 12.5928L104.64 12.8255H104.496L104.379 12.6483C104.346 12.5984 104.319 12.5541 104.296 12.5319C104.274 12.5097 104.258 12.4876 104.235 12.4765C104.213 12.4654 104.202 12.4599 104.18 12.4543C104.169 12.4543 104.147 12.4543 104.114 12.4543H103.981V12.8366H103.864L103.87 12.8311ZM103.986 12.3491H104.235C104.291 12.3491 104.33 12.3491 104.357 12.3325C104.385 12.3158 104.407 12.3048 104.424 12.2826C104.44 12.2604 104.446 12.2327 104.446 12.205C104.446 12.1662 104.429 12.133 104.402 12.1053C104.374 12.0776 104.324 12.0665 104.258 12.0665H103.981V12.3546L103.986 12.3491Z" fill="#E15352"/>
<path d="M104.192 13.1967C103.748 13.1967 103.383 12.8366 103.383 12.3989C103.383 11.9612 103.743 11.6011 104.192 11.6011C104.64 11.6011 105.001 11.9612 105.001 12.3989C105.001 12.8366 104.64 13.1967 104.192 13.1967ZM104.192 11.7174C103.809 11.7174 103.499 12.0221 103.499 12.3989C103.499 12.7756 103.809 13.0803 104.192 13.0803C104.574 13.0803 104.884 12.7756 104.884 12.3989C104.884 12.0221 104.574 11.7174 104.192 11.7174Z" fill="#E15352"/>
</svg>
